<?xml version="1.0" standalone="no"?>
<!DOCTYPE svg PUBLIC "-//W3C//DTD SVG 20010904//EN"
 "http://www.w3.org/TR/2001/REC-SVG-20010904/DTD/svg10.dtd">
<svg version="1.0" xmlns="http://www.w3.org/2000/svg"
 width="1000.000000pt" height="1000.000000pt" viewBox="0 0 1000.000000 1000.000000"
 preserveAspectRatio="xMidYMid meet">

<g transform="translate(0.000000,1000.000000) scale(0.100000,-0.100000)"
fill="#000000" stroke="none">
<path d="M4950 8007 c-3 -2 -44 -7 -91 -11 -169 -12 -462 -104 -602 -188 -305
-185 -536 -516 -612 -876 -20 -97 -20 -314 1 -422 53 -282 224 -556 459 -736
122 -94 312 -182 448 -207 98 -19 288 -22 404 -6 207 27 473 137 637 264 53
41 164 151 202 200 35 45 109 189 129 250 65 199 95 517 60 650 -18 70 -49
115 -79 115 -67 0 -186 -242 -186 -379 0 -65 -15 -91 -54 -91 -31 0 -94 -47
-147 -110 -80 -95 -87 -98 -469 -202 -254 -69 -372 -111 -447 -161 -92 -61
-168 -146 -224 -247 -66 -121 -62 -116 -95 -101 -43 19 -101 59 -174 119 -368
307 -503 805 -334 1233 38 98 103 226 136 269 11 14 41 55 68 91 26 36 83 96
126 135 44 38 81 72 84 75 39 44 267 158 395 197 130 40 174 49 330 62 195 17
378 -2 565 -58 72 -21 261 -105 302 -133 14 -11 29 -19 33 -19 9 0 162 -106
192 -132 30 -28 68 -20 68 13 0 21 -17 39 -85 91 -164 125 -373 226 -555 268
-44 11 -98 24 -120 29 -42 11 -356 27 -365 18z m946 -1083 c-3 -8 -2 -12 3 -9
19 11 23 -19 22 -148 -4 -380 -103 -647 -304 -819 -105 -90 -141 -115 -238
-167 -208 -109 -380 -154 -599 -155 -186 -1 -390 42 -390 82 1 49 124 218 215
296 89 76 164 105 480 186 247 63 367 105 425 151 28 22 50 44 50 48 0 15 90
101 105 101 60 0 -11 -166 -115 -266 -52 -51 -182 -124 -281 -160 -86 -30
-104 -44 -95 -72 10 -30 38 -32 108 -8 216 77 370 201 442 357 50 108 57 135
71 274 8 77 19 156 25 175 13 40 49 119 63 138 13 17 20 15 13 -4z"/>
<path d="M5015 7635 c-191 -30 -390 -108 -557 -218 -100 -66 -258 -205 -258
-227 0 -5 -11 -22 -25 -38 -60 -72 -135 -258 -164 -407 -30 -155 -33 -447 -5
-513 38 -91 84 -96 140 -16 63 89 114 240 114 336 0 43 25 78 54 78 13 0 41
12 62 26 45 30 124 114 124 131 0 13 118 73 143 73 8 0 31 7 52 15 20 9 55 20
78 24 105 21 409 106 477 133 169 70 279 175 390 376 13 23 30 42 37 42 66 0
294 -192 388 -326 212 -304 269 -649 160 -978 -69 -209 -171 -372 -324 -518
-216 -208 -436 -310 -759 -353 -411 -55 -810 56 -1139 317 -69 54 -96 58 -101
15 -4 -32 3 -39 123 -125 161 -116 293 -181 480 -235 157 -45 239 -57 415 -58
200 -2 304 13 530 75 80 22 291 130 368 189 263 197 448 487 519 812 18 85 21
312 4 405 -49 271 -214 553 -421 722 -149 121 -366 220 -540 248 -87 13 -266
11 -365 -5z m335 -70 c71 -6 196 -40 224 -61 25 -18 17 -43 -43 -134 -81 -124
-155 -193 -266 -248 -56 -28 -125 -49 -505 -152 -247 -68 -285 -88 -360 -189
-42 -56 -92 -92 -107 -77 -12 11 16 98 48 151 75 124 173 198 363 275 97 39
118 58 97 84 -18 21 -50 20 -112 -5 -215 -84 -336 -177 -416 -319 -51 -90 -68
-153 -88 -327 -15 -133 -40 -223 -74 -265 -17 -20 -21 -21 -36 -8 -16 13 -17
30 -12 180 8 196 25 299 71 430 60 167 110 244 235 353 175 155 451 283 663
307 159 18 163 19 318 5z"/>
<path d="M2873 4498 c-136 -20 -228 -94 -247 -198 -13 -72 11 -147 76 -239 73
-104 173 -224 288 -347 90 -96 150 -168 150 -179 0 -4 10 -21 23 -38 18 -26
22 -45 22 -107 0 -65 -4 -80 -28 -116 -37 -55 -116 -95 -200 -101 -84 -7 -209
19 -278 57 -30 16 -59 30 -65 30 -15 0 -27 -45 -19 -70 6 -20 91 -58 205 -91
99 -28 277 -23 355 10 156 68 214 144 223 294 4 75 3 82 -32 150 -41 81 -81
130 -281 344 -173 185 -180 194 -223 266 -72 120 -27 218 113 247 61 13 244
-8 295 -34 18 -9 42 -16 52 -16 16 0 19 6 16 37 l-3 38 -99 32 c-105 34 -238
46 -343 31z"/>
<path d="M4710 4504 c-41 -7 -104 -24 -125 -34 -11 -5 -46 -21 -79 -35 -180
-77 -329 -252 -381 -446 -89 -332 66 -678 370 -823 146 -70 308 -97 431 -71
38 8 83 17 99 20 61 13 230 105 280 153 147 140 211 260 237 447 43 310 -138
616 -436 737 -37 15 -76 28 -85 28 -9 0 -22 5 -29 12 -11 11 -232 21 -282 12z
m228 -74 c70 -12 77 -15 175 -79 83 -54 126 -104 167 -196 44 -96 57 -146 65
-240 21 -252 -18 -428 -125 -565 -121 -154 -277 -216 -474 -189 -130 17 -233
81 -329 203 -81 101 -134 322 -122 501 24 349 222 572 510 574 39 1 98 -4 133
-9z"/>
<path d="M8365 4499 c-153 -16 -316 -85 -420 -181 -43 -39 -125 -147 -153
-203 -75 -150 -102 -349 -64 -475 51 -167 89 -234 197 -350 111 -118 294 -197
486 -207 90 -5 122 -2 200 17 160 38 284 96 362 171 25 24 28 31 17 44 -14 17
-46 20 -55 6 -3 -6 -26 -24 -51 -41 -128 -86 -251 -124 -404 -123 -58 1 -125
6 -150 13 -116 30 -240 123 -317 238 -112 167 -131 495 -40 692 82 176 189
269 358 311 105 27 251 22 347 -11 92 -31 183 -75 216 -104 35 -31 38 -31 60
-7 17 19 17 21 -5 43 -34 33 -198 116 -278 140 -77 23 -220 36 -306 27z"/>
<path d="M1123 4472 l-92 -3 -1 -674 -1 -675 96 0 95 0 0 393 0 392 310 -3
310 -3 0 25 c0 14 -4 27 -8 30 -5 3 -141 6 -302 6 -161 1 -298 4 -304 6 -8 3
-10 67 -9 207 1 111 2 209 2 218 1 13 20 15 134 14 72 -1 216 1 320 3 187 5
187 5 187 28 0 13 -5 26 -10 29 -11 7 -577 13 -727 7z"/>
<path d="M2145 4471 c-1 -3 -3 -308 -3 -678 l-1 -672 86 -3 c51 -2 87 1 89 7
2 6 3 312 2 680 l-3 670 -83 1 c-46 0 -85 -2 -87 -5z"/>
<path d="M3650 4473 c0 -5 -1 -311 -2 -682 l-3 -674 84 1 c58 0 87 5 92 14 13
19 10 1307 -2 1330 -8 15 -23 18 -89 18 -44 0 -80 -3 -80 -7z"/>
<path d="M5623 4465 c-2 -8 -3 -24 -1 -36 3 -22 5 -22 144 -20 77 1 152 -1
167 -4 l27 -7 0 -638 0 -637 83 -6 c45 -3 85 -2 90 2 4 4 6 289 5 632 -3 572
-2 627 14 643 13 15 32 17 110 16 51 -1 121 -1 156 -1 59 1 62 2 62 25 0 14
-5 28 -11 31 -5 4 -197 8 -425 10 -335 2 -416 0 -421 -10z"/>
<path d="M6719 4459 c-10 -20 -12 -1339 -2 -1339 112 -2 558 -4 671 -2 l152 2
0 30 0 30 -317 2 -318 3 0 355 0 355 308 3 307 2 0 30 0 30 -307 2 -308 3 0
220 0 220 315 0 315 0 3 33 3 32 -278 1 c-153 0 -336 1 -406 2 -110 2 -130 0
-138 -14z"/>
<path d="M4970 2610 c-2258 -3 -4094 -8 -4080 -12 31 -9 8090 -8 8180 1 50 5
59 8 40 13 -14 4 -27 7 -30 5 -3 -1 -1852 -4 -4110 -7z"/>
<path d="M1451 2364 c0 -11 3 -14 6 -6 3 7 2 16 -1 19 -3 4 -6 -2 -5 -13z"/>
<path d="M7980 2370 c-13 -8 -13 -10 2 -10 9 0 20 5 23 10 8 13 -5 13 -25 0z"/>
<path d="M973 2289 c-50 -15 -78 -63 -78 -131 1 -66 17 -91 82 -120 42 -19 43
-19 89 2 32 15 43 25 36 32 -7 7 -20 4 -42 -12 -38 -27 -70 -21 -111 20 -25
24 -29 36 -29 83 0 43 5 59 24 80 32 34 88 45 122 22 30 -19 45 -12 23 11 -20
19 -75 26 -116 13z"/>
<path d="M1180 2166 c0 -129 1 -136 20 -136 11 0 20 7 20 15 0 8 -5 15 -11 15
-6 0 -9 41 -8 117 1 79 -2 118 -10 121 -8 3 -11 -36 -11 -132z"/>
<path d="M1528 2294 c-6 -6 1 -230 7 -251 3 -7 9 -13 16 -13 7 0 10 32 9 103
-3 133 -2 138 17 102 43 -79 147 -205 170 -205 19 0 18 256 -1 263 -20 8 -25
-22 -19 -123 6 -92 -4 -115 -28 -67 -10 18 -71 98 -139 179 -15 19 -23 22 -32
12z"/>
<path d="M1847 2293 c-11 -11 -8 -261 3 -268 6 -4 10 43 10 134 0 78 -1 141
-3 141 -2 0 -7 -3 -10 -7z"/>
<path d="M2013 2289 c-69 -20 -103 -134 -59 -201 21 -32 73 -58 116 -58 38 0
93 27 84 41 -4 8 -9 7 -15 -2 -5 -9 -27 -13 -64 -13 -75 2 -106 30 -113 102
-6 62 15 97 68 113 31 10 44 9 70 -5 38 -19 50 -20 50 -5 0 12 -62 39 -87 38
-10 0 -32 -5 -50 -10z"/>
<path d="M2292 2271 c-21 -48 -92 -235 -92 -244 0 -5 4 -5 10 -2 12 7 54 97
51 109 -1 4 2 13 7 20 5 6 15 32 23 59 7 26 19 47 25 47 14 0 44 -82 44 -122
0 -15 4 -28 8 -28 5 0 16 -18 25 -40 8 -22 20 -40 26 -40 14 0 14 4 -5 48 -9
20 -25 64 -36 97 -11 33 -26 67 -32 75 -7 8 -16 23 -19 33 -9 25 -20 21 -35
-12z"/>
<path d="M2585 2292 c-10 -10 -5 -273 5 -267 6 3 10 26 10 50 0 70 4 75 72 75
41 0 57 3 52 11 -4 7 -25 9 -56 7 -57 -6 -71 9 -66 70 l3 37 80 5 c48 3 72 8
60 12 -23 8 -152 7 -160 0z"/>
<path d="M2820 2160 c0 -178 18 -186 22 -10 3 137 2 150 -13 150 -5 0 -9 -62
-9 -140z"/>
<path d="M2958 2289 c-20 -8 -29 -20 -34 -46 -9 -46 3 -65 52 -81 87 -30 104
-41 104 -66 0 -36 -23 -49 -72 -41 -24 4 -51 12 -62 17 -12 7 -22 6 -29 -1 -7
-7 4 -17 39 -31 85 -37 148 -8 142 65 -3 34 -7 38 -53 56 -110 44 -124 60 -86
98 23 23 85 29 96 10 4 -6 13 -8 20 -5 8 3 16 0 19 -7 3 -9 5 -9 5 0 2 28 -94
50 -141 32z"/>
<path d="M3178 2293 c-8 -20 4 -273 13 -268 12 8 12 275 0 275 -6 0 -11 -3
-13 -7z"/>
<path d="M3350 2293 c-25 -9 -61 -46 -72 -73 -15 -38 -11 -106 8 -135 23 -35
96 -69 129 -61 14 4 43 24 65 46 35 35 40 46 40 86 0 100 -85 168 -170 137z
m104 -44 c47 -41 58 -104 26 -149 -32 -45 -75 -65 -110 -50 -70 29 -94 100
-59 171 32 64 90 75 143 28z"/>
<path d="M3554 2288 c-3 -4 15 -8 40 -8 30 0 46 -4 47 -12 0 -7 0 -54 -1 -105
-1 -70 2 -98 14 -115 15 -21 16 -15 16 99 l0 122 33 5 c17 3 43 7 57 9 19 3
16 5 -10 6 -160 7 -191 7 -196 -1z"/>
<path d="M3844 2288 c-7 -11 -12 -208 -6 -241 3 -15 9 -26 14 -25 6 2 10 53 9
125 -2 138 -7 131 86 129 29 -1 52 3 50 8 -4 11 -147 14 -153 4z"/>
<path d="M4077 2294 c-8 -14 5 -264 14 -264 4 0 9 21 11 48 l3 47 44 -3 c27
-2 49 -9 57 -20 12 -16 13 -16 14 3 0 11 9 35 20 53 26 43 26 94 -1 118 -15
13 -40 20 -88 22 -38 2 -71 0 -74 -4z m143 -34 c43 -43 12 -107 -55 -111 -22
-1 -46 -1 -52 0 -17 1 -17 103 -1 119 20 20 85 15 108 -8z"/>
<path d="M4420 2283 c0 -10 -9 -29 -20 -43 -11 -14 -20 -31 -20 -38 0 -7 -4
-20 -9 -30 -14 -26 -51 -123 -51 -133 0 -20 21 -7 32 19 6 15 16 41 23 57 7
17 21 56 30 88 10 31 22 57 27 57 12 0 38 -65 45 -109 3 -20 11 -43 18 -51 7
-8 16 -25 19 -37 8 -25 26 -31 26 -9 0 14 -24 79 -69 183 -25 60 -51 82 -51
46z"/>
<path d="M4636 2293 c-26 -4 -28 -7 -22 -35 3 -17 6 -77 6 -135 0 -67 4 -102
10 -98 6 3 10 28 10 56 l0 49 54 0 c72 0 106 26 106 81 0 57 -34 90 -92 88
-24 -1 -56 -4 -72 -6z m112 -29 c15 -10 22 -25 22 -49 0 -46 -30 -66 -87 -58
l-43 6 0 52 c0 33 5 55 13 58 26 11 73 6 95 -9z"/>
<path d="M4865 2288 c-9 -22 -1 -258 8 -258 12 0 19 258 7 265 -6 4 -13 0 -15
-7z"/>
<path d="M5043 2268 c-18 -33 -70 -174 -80 -215 -3 -13 -1 -23 5 -23 6 0 13
14 17 30 4 17 12 36 18 43 7 6 20 44 30 82 10 39 25 77 33 86 16 18 18 29 4
29 -5 0 -17 -15 -27 -32z"/>
<path d="M5300 2290 c0 -5 17 -10 39 -10 57 0 63 -12 60 -142 -2 -66 1 -113 7
-113 5 0 10 54 12 120 2 80 7 122 15 127 7 4 30 8 52 8 27 0 35 3 26 9 -20 13
-211 14 -211 1z"/>
<path d="M5577 2293 c-4 -7 -4 -39 2 -223 l1 -45 62 2 c35 1 71 2 81 3 9 0 17
7 17 16 0 13 -5 15 -22 9 -28 -10 -79 -11 -101 -2 -14 5 -16 21 -16 99 0 132
-2 128 75 128 41 0 63 4 59 10 -7 12 -152 14 -158 3z"/>
<path d="M5825 2288 c-9 -24 -1 -258 9 -256 5 2 8 54 7 117 -3 126 -1 131 60
131 53 0 83 -28 82 -75 -1 -44 -14 -55 -65 -55 -21 0 -38 -4 -38 -10 0 -5 7
-10 15 -10 8 0 24 -5 34 -12 16 -10 23 -7 45 18 33 37 36 111 6 139 -26 24
-147 34 -155 13z"/>
<path d="M6084 2291 c-2 -2 -4 -62 -4 -133 0 -107 3 -130 15 -135 24 -9 30 4
15 31 -8 17 -10 38 -5 63 8 43 8 54 -1 104 -8 46 3 53 81 54 33 0 60 4 60 10
0 9 -152 15 -161 6z"/>
<path d="M6344 2277 c-17 -13 -24 -29 -24 -53 0 -30 5 -36 50 -59 27 -14 58
-25 68 -25 24 0 42 -19 42 -46 0 -26 -14 -37 -48 -39 -13 0 -27 -7 -32 -15
-15 -23 25 -25 63 -3 29 17 32 24 32 68 l0 48 -57 16 c-58 16 -98 44 -98 67 0
8 11 21 25 30 22 14 29 14 75 1 54 -16 75 -7 38 17 -31 20 -105 16 -134 -7z"/>
<path d="M6636 2268 c-14 -30 -70 -180 -83 -220 -3 -12 0 -18 9 -18 13 0 59
115 58 148 0 7 4 20 9 30 5 9 12 25 15 35 3 9 10 17 15 17 13 0 41 -53 41 -78
0 -25 39 -122 56 -141 8 -8 16 -12 20 -8 5 5 -14 55 -87 225 -10 23 -22 42
-28 42 -6 0 -17 -15 -25 -32z"/>
<path d="M6979 2280 c-54 -29 -64 -45 -62 -111 1 -63 15 -91 60 -120 33 -22
65 -24 128 -7 l45 12 0 54 c0 33 -4 51 -10 47 -5 -3 -10 -24 -10 -46 0 -22 -4
-38 -9 -34 -5 3 -12 1 -16 -5 -3 -5 -30 -10 -59 -10 -75 0 -98 20 -104 91 -4
48 -1 59 22 86 35 42 74 50 117 24 38 -24 63 -27 57 -8 -6 17 -68 46 -98 46
-14 0 -41 -8 -61 -19z"/>
<path d="M7220 2205 c0 -114 12 -144 69 -170 35 -15 44 -16 72 -5 17 8 42 25
55 39 22 24 24 34 24 128 0 62 -4 103 -10 103 -6 0 -10 -31 -10 -73 0 -86 -12
-132 -42 -164 -30 -33 -64 -29 -104 11 -34 34 -34 34 -34 130 0 57 -4 96 -10
96 -6 0 -10 -38 -10 -95z"/>
<path d="M7500 2290 c0 -5 17 -10 38 -10 21 0 43 -5 50 -12 8 -8 12 -52 12
-130 0 -72 4 -118 10 -118 6 0 10 48 10 124 0 136 -1 134 70 137 l25 1 -25 8
c-37 12 -190 12 -190 0z"/>
<path d="M7912 2293 l-32 -4 2 -127 3 -127 29 -3 c25 -3 27 -2 14 11 -9 9 -14
33 -13 63 l0 49 50 3 c78 4 86 16 15 22 -70 5 -79 14 -66 66 6 22 12 24 60 24
60 0 89 7 80 21 -5 9 -77 10 -142 2z"/>
<path d="M8135 2292 c-3 -3 -5 -64 -5 -136 0 -92 3 -127 11 -119 6 6 12 27 13
47 4 47 7 49 53 41 33 -5 42 -13 62 -50 13 -25 27 -42 32 -39 5 3 9 0 9 -7 0
-7 3 -10 6 -6 8 7 -18 67 -28 67 -17 0 -7 58 12 75 25 23 26 72 0 105 -17 22
-27 25 -89 26 -39 1 -73 -1 -76 -4z m141 -36 c42 -41 11 -95 -59 -106 -56 -8
-67 1 -67 53 0 65 13 79 68 71 26 -3 52 -11 58 -18z"/>
<path d="M8405 2292 c-13 -9 -7 -262 6 -262 5 0 9 18 9 40 0 43 18 60 64 60
19 0 29 -8 40 -32 7 -18 23 -44 35 -57 l21 -24 0 22 c0 13 -9 34 -20 48 -11
14 -20 32 -20 39 0 8 9 19 20 26 26 16 29 108 5 128 -18 15 -144 24 -160 12z
m146 -33 c15 -24 10 -75 -10 -93 -14 -12 -32 -16 -67 -14 l-49 3 -3 49 c-5 74
-1 79 64 74 33 -3 60 -11 65 -19z"/>
<path d="M8893 2288 c-2 -5 44 -8 102 -8 72 0 104 3 100 10 -8 12 -194 10
-202 -2z"/>
<path d="M1424 2159 c2 -72 7 -133 10 -136 3 -4 6 55 6 130 0 85 -4 137 -10
137 -6 0 -8 -48 -6 -131z"/>
<path d="M7780 2160 c0 -80 4 -130 10 -130 6 0 10 50 10 130 0 80 -4 130 -10
130 -6 0 -10 -50 -10 -130z"/>
<path d="M8660 2160 l0 -130 70 0 c39 0 73 -1 77 -2 4 -2 9 5 11 15 4 19 -32
25 -43 7 -10 -16 -40 -11 -69 11 -28 22 -36 75 -15 96 8 8 8 17 -1 32 -6 12
-10 34 -8 49 3 26 5 27 73 30 108 5 105 22 -3 22 l-92 0 0 -130z"/>
<path d="M5091 2263 c-3 -49 70 -246 85 -230 5 5 -29 105 -64 187 -6 14 -13
32 -15 40 -3 8 -6 10 -6 3z"/>
<path d="M9007 2198 c-24 -29 -57 -71 -73 -93 -16 -22 -33 -43 -39 -47 -12 -9
-7 -13 24 -23 22 -7 23 -5 16 24 -4 17 -2 31 3 31 5 0 36 36 70 80 69 89 68
109 -1 28z"/>
<path d="M3880 2170 c0 -5 25 -10 55 -10 30 0 55 5 55 10 0 6 -25 10 -55 10
-30 0 -55 -4 -55 -10z"/>
<path d="M5646 2171 c-7 -12 33 -25 59 -19 9 1 17 8 18 13 3 13 -69 19 -77 6z"/>
<path d="M6142 2168 c5 -15 87 -18 91 -3 1 6 -20 11 -47 13 -36 2 -47 0 -44
-10z"/>
<path d="M8780 2170 c0 -5 7 -10 15 -10 8 0 15 5 15 10 0 6 -7 10 -15 10 -8 0
-15 -4 -15 -10z"/>
<path d="M8718 2163 c7 -3 16 -2 19 1 4 3 -2 6 -13 5 -11 0 -14 -3 -6 -6z"/>
<path d="M7095 2150 c3 -5 11 -10 16 -10 6 0 7 5 4 10 -3 6 -11 10 -16 10 -6
0 -7 -4 -4 -10z"/>
<path d="M2290 2110 c0 -5 9 -10 20 -10 11 0 20 5 20 10 0 6 -9 10 -20 10 -11
0 -20 -4 -20 -10z"/>
<path d="M4445 2110 c3 -5 8 -10 11 -10 2 0 4 5 4 10 0 6 -5 10 -11 10 -5 0
-7 -4 -4 -10z"/>
<path d="M6645 2110 c-4 -6 5 -10 20 -10 15 0 24 4 20 10 -3 6 -12 10 -20 10
-8 0 -17 -4 -20 -10z"/>
<path d="M5957 2078 c3 -13 14 -31 24 -41 18 -17 19 -17 19 0 0 21 -27 63 -40
63 -4 0 -6 -10 -3 -22z"/>
<path d="M4224 2075 c-5 -12 -1 -22 11 -31 25 -19 28 -12 11 21 -13 26 -16 27
-22 10z"/>
<path d="M6320 2069 c0 -5 5 -7 10 -4 6 3 10 8 10 11 0 2 -4 4 -10 4 -5 0 -10
-5 -10 -11z"/>
<path d="M3945 2053 c-51 -8 -49 -21 4 -24 43 -3 51 -1 51 14 0 9 -6 16 -12
16 -7 -1 -26 -4 -43 -6z"/>
<path d="M6173 2053 c-20 -3 -33 -10 -33 -19 0 -25 109 -12 118 14 4 12 -17
13 -85 5z"/>
<path d="M6340 2050 c0 -5 9 -10 20 -10 11 0 20 5 20 10 0 6 -9 10 -20 10 -11
0 -20 -4 -20 -10z"/>
<path d="M1280 2041 l-25 -8 26 -7 c34 -10 75 -4 72 9 -3 13 -41 16 -73 6z"/>
<path d="M7995 2040 c-18 -8 -18 -9 5 -9 14 0 32 4 40 9 12 8 12 10 -5 9 -11
0 -29 -4 -40 -9z"/>
<path d="M9036 2041 c15 -14 54 -23 54 -13 0 5 -10 12 -22 16 -33 8 -44 8 -32
-3z"/>
<path d="M8968 2028 c9 -9 15 -9 24 0 9 9 7 12 -12 12 -19 0 -21 -3 -12 -12z"/>
</g>
</svg>
